<?xml version="1.0" encoding="UTF-8"?>
<svg id="Camada_2" data-name="Camada 2" xmlns="http://www.w3.org/2000/svg" viewBox="0 0 1920 563.86">
  <defs>
    <style>
      .cls-1 {
        fill: #fff;
        stroke-width: 0px;
      }
    </style>
  </defs>
  <g id="Camada_1-2" data-name="Camada 1">
    <g>
      <g>
        <path class="cls-1" d="M0,561.77v-139.75h31.29v111.59h72.17v28.16H0Z"/>
        <path class="cls-1" d="M121.6,561.77v-139.75h31.29v139.75h-31.29Z"/>
        <path class="cls-1" d="M173.12,561.77v-139.75h68.83c29.83,0,45.89,10.64,45.89,34.83,0,16.69-9.39,27.53-27.95,29.83v2.09c22.53,1.67,33.58,15.85,33.58,34.62,0,23.57-16.27,38.38-48.18,38.38h-72.17ZM204.41,477.3h35.46c11.68,0,16.69-2.5,16.69-13.56s-5.21-13.56-16.69-13.56h-35.46v27.11ZM204.41,533.61h39.84c11.47,0,17.73-2.09,17.73-15.23s-6.05-15.64-17.73-15.64h-39.84v30.87Z"/>
        <path class="cls-1" d="M309.32,561.77v-139.75h106.58v28.16h-75.3v27.32h72.17v27.95h-72.17v28.16h75.3v28.16h-106.58Z"/>
        <path class="cls-1" d="M432.39,561.77v-139.75h64.24c33.37,0,51.94,15.43,51.94,42.55,0,22.74-11.26,36.29-35.25,38.38v2.09c12.1,3.75,17.94,11.06,23.36,21.69l17.73,35.04h-36.5l-16.48-32.33c-6.26-12.1-10.43-17.31-25.24-17.31h-12.51v49.64h-31.29ZM463.67,486.27h34.42c14.6,0,19.4-4.38,19.4-18.15s-4.8-17.94-19.4-17.94h-34.42v36.08Z"/>
        <path class="cls-1" d="M567.55,561.77v-139.75h53.4c44.84,0,72.38,26.07,72.38,69.87s-27.53,69.88-72.38,69.88h-53.4ZM598.84,450.18v83.43h21.69c28.37,0,39.21-8.55,39.21-41.72s-10.85-41.72-39.21-41.72h-21.69Z"/>
        <path class="cls-1" d="M687.9,561.77l51.52-139.75h45.47l51.52,139.75h-34l-11.26-31.08h-59.24l-11.47,31.08h-32.54ZM742.13,502.74h38.8l-7.93-21.69-10.22-31.5h-2.09l-10.64,31.5-7.93,21.69Z"/>
        <path class="cls-1" d="M847.05,561.77v-139.75h53.4c44.84,0,72.38,26.07,72.38,69.87s-27.53,69.88-72.38,69.88h-53.4ZM878.34,450.18v83.43h21.69c28.37,0,39.21-8.55,39.21-41.72s-10.85-41.72-39.21-41.72h-21.69Z"/>
        <path class="cls-1" d="M987.01,561.77v-139.75h106.58v28.16h-75.3v27.32h72.17v27.95h-72.17v28.16h75.3v28.16h-106.58Z"/>
        <path class="cls-1" d="M1150.96,561.77v-139.75h44.01l24.4,65.28,11.26,35.88h2.09l11.06-35.88,23.36-65.28h44.01v139.75h-31.29v-66.12l1.67-26.91h-2.29l-8.13,27.32-21.07,56.11h-37.96l-21.07-56.11-8.34-27.32h-2.09l1.67,26.91v66.12h-31.29Z"/>
        <path class="cls-1" d="M1331.38,561.77v-139.75h106.58v28.16h-75.3v27.32h72.17v27.95h-72.17v28.16h75.3v28.16h-106.58ZM1370.38,409.51v-1.04l23.15-26.28h42.55v1.04l-32.54,26.28h-33.16Z"/>
        <path class="cls-1" d="M1454.44,561.77v-139.75h53.4c44.84,0,72.38,26.07,72.38,69.87s-27.53,69.88-72.38,69.88h-53.4ZM1485.73,450.18v83.43h21.69c28.37,0,39.21-8.55,39.21-41.72s-10.85-41.72-39.21-41.72h-21.69Z"/>
        <path class="cls-1" d="M1594.41,561.77v-139.75h31.29v139.75h-31.29Z"/>
        <path class="cls-1" d="M1641.34,491.9c0-43.59,25.03-71.96,66.95-71.96s63.62,21.69,63.62,56.32v1.88h-33.37v-1.04c0-20.02-8.34-26.91-30.45-26.91-23.57,0-33.37,8.55-33.37,41.72s9.8,41.72,33.37,41.72c22.11,0,30.45-6.88,30.45-26.91v-1.04h33.37v1.88c0,34.62-22.32,56.32-63.62,56.32s-66.95-28.37-66.95-71.96Z"/>
        <path class="cls-1" d="M1771.49,561.77l51.52-139.75h45.47l51.52,139.75h-34l-11.26-31.08h-59.24l-11.47,31.08h-32.54ZM1825.72,502.74h38.8l-7.93-21.69-10.22-31.5h-2.09l-10.64,31.5-7.93,21.69Z"/>
      </g>
      <path class="cls-1" d="M1234.5,0v76.25c-23.87,0-46.89,3.58-68.62,10.22v226.15s-76.25,0-76.25,0V125.96c-55.66,43.31-91.5,110.87-91.5,186.66h-76.25c0-75.79-35.84-143.35-91.5-186.66v186.66s-76.25,0-76.25,0V86.47c-21.73-6.63-44.76-10.22-68.62-10.22V0c118.34,0,221.43,66.03,274.5,163.17C1013.07,66.03,1116.16,0,1234.5,0Z"/>
    </g>
  </g>
</svg>